<svg id="Group_37586" data-name="Group 37586" xmlns="http://www.w3.org/2000/svg" width="146.485" height="104.697" viewBox="0 0 146.485 104.697">
  <g id="Group_36784" data-name="Group 36784" transform="translate(37.845)">
    <path id="Path_23288" data-name="Path 23288" d="M248.261,75.378c5.614-11.456,20.569-14.306,27.627-5.3,8.8,11.243-2.387,37.682-12.13,47.573,17.576-13.9,27.408-40.082,17.653-53.5-6.929-9.507-21.265-12.914-32.917-1.167-4.452-5.688-14.516-7.041-21.64-4.734-12.336,3.978-14.826,19.517-11.006,32.406-1.639-11.045.568-24.544,12.013-27.433,8.116-2.055,16.775,4.708,20.4,12.159" transform="translate(-214.2 -41.343)" fill="#e03c8a"/>
    <path id="Path_23289" data-name="Path 23289" d="M236.408,40.757A19.272,19.272,0,0,1,246.485,43.1c4.2,2.466,5.109,6.636,3.274,10.874-1.2-2.985-3.384-5.934-5.876-7.05,2.138,1.643,3.831,5.26,4.377,8.478-4.259,1.5-6.246-.589-7.205-4.948-.674-3.036-1.238-6.687-4.647-9.7" transform="translate(-215.115 -40.735)" fill="#14225d"/>
    <path id="Path_23290" data-name="Path 23290" d="M250.973,59.146a22.826,22.826,0,0,1,2.668-9.25c2.556-4.748,6.246-5.481,6.246-5.481l1.193,1.909s-3.7.9-6.619,6.024a50.12,50.12,0,0,0-3.488,6.8" transform="translate(-215.715 -40.887)" fill="#14225d" fill-rule="evenodd"/>
  </g>
  <g id="Group_37266" data-name="Group 37266" transform="translate(0 80.175)">
    <path id="Path_23291" data-name="Path 23291" d="M183.946,142a9.062,9.062,0,0,1-1.075-.069,11.151,11.151,0,0,1-1.115-.194,7.491,7.491,0,0,1-1.021-.3,6.544,6.544,0,0,1-.82-.373,4.2,4.2,0,0,0-.726.248,3.054,3.054,0,0,0-.672.4,2.087,2.087,0,0,0-.523.663,2.169,2.169,0,0,0-.228,1.036,12.129,12.129,0,0,0,.067,1.256q.066.649.134,1.146c.044.332.094.639.148.925s.1.539.134.759a1.273,1.273,0,0,1-.081.787,1.057,1.057,0,0,1-.7.511c-.268.073-.56.138-.873.193s-.631.1-.953.138c-.036-.092-.1-.327-.189-.7s-.183-.828-.282-1.353-.2-1.124-.3-1.795a13.22,13.22,0,0,1-.148-1.919,5.776,5.776,0,0,1,.336-2.084,4.867,4.867,0,0,1,.793-1.408,4.353,4.353,0,0,1,1.008-.884,5.385,5.385,0,0,1,1.008-.51,4.542,4.542,0,0,1-.363-1.036,6.882,6.882,0,0,1-.147-1.56,6.105,6.105,0,0,1,.4-2.264,4.863,4.863,0,0,1,1.169-1.754,5.438,5.438,0,0,1,1.854-1.146,6.956,6.956,0,0,1,2.486-.414,8.464,8.464,0,0,1,1.424.124q.726.125,1.451.3t1.505.4v6.821a2.686,2.686,0,0,0,.672.3,4.344,4.344,0,0,0,1.344.165h.993v2.982h-.993a5.032,5.032,0,0,1-1.237-.179,4.236,4.236,0,0,1-1.343-.621,2.925,2.925,0,0,1-1.143,1.022,4.362,4.362,0,0,1-2,.386m.753-8.588a2.434,2.434,0,0,0-.632-.194,4.811,4.811,0,0,0-.765-.055,2.957,2.957,0,0,0-2.218.718,3.054,3.054,0,0,0-.685,2.181,2.727,2.727,0,0,0,.941,2.237,3.637,3.637,0,0,0,2.391.773,1.129,1.129,0,0,0,.686-.207.819.819,0,0,0,.282-.7Z" transform="translate(-174.729 -124.599)" fill="#14225d"/>
    <path id="Path_23292" data-name="Path 23292" d="M193.322,132.423q0-1.27,1.182-1.27h1.828v6.821c0,.2.165.331.5.386a10.314,10.314,0,0,0,1.545.082h1v2.983h-1a4.8,4.8,0,0,1-1.4-.263,4.7,4.7,0,0,1-1.5-.787,4.4,4.4,0,0,1-1.17.732,4.033,4.033,0,0,1-1.652.317h-2.339v-2.983h1.693a1.266,1.266,0,0,0,1.008-.359,1.351,1.351,0,0,0,.309-.911Zm-2.364,12.426a1.755,1.755,0,0,1,.51-1.27,1.692,1.692,0,0,1,1.264-.524,1.661,1.661,0,0,1,1.236.524,1.837,1.837,0,0,1,0,2.541,1.664,1.664,0,0,1-1.236.524,1.7,1.7,0,0,1-1.264-.524,1.754,1.754,0,0,1-.51-1.27m4.058,0a1.733,1.733,0,0,1,.524-1.27,1.706,1.706,0,0,1,1.25-.524,1.66,1.66,0,0,1,1.236.524,1.835,1.835,0,0,1,0,2.541,1.664,1.664,0,0,1-1.236.524,1.71,1.71,0,0,1-1.25-.524,1.732,1.732,0,0,1-.524-1.27" transform="translate(-175.371 -124.635)" fill="#14225d"/>
    <path id="Path_23293" data-name="Path 23293" d="M214.766,141.4a3.192,3.192,0,0,1-1.223-.275,8.83,8.83,0,0,1-1.277-.663,1.516,1.516,0,0,1-.832.7,3.711,3.711,0,0,1-1.371.234H198.776v-2.982H209.74V136.9q0-.8-.053-1.436a2.43,2.43,0,0,0-.337-1.09,1.733,1.733,0,0,0-.887-.69,4.8,4.8,0,0,0-1.68-.235,14.425,14.425,0,0,0-2.136.151q-1.007.152-1.545.29a1,1,0,0,1-1.344-.745l-.4-1.739q.86-.222,1.707-.386t1.827-.3a14.366,14.366,0,0,1,2-.138,9.859,9.859,0,0,1,2.688.317,3.832,3.832,0,0,1,2.807,2.83,9.93,9.93,0,0,1,.31,2.651v1.546c0,.185.188.314.564.387a8.246,8.246,0,0,0,1.505.11h.967V141.4Zm-9.54,3.369a1.754,1.754,0,0,1,.51-1.27,1.662,1.662,0,0,1,1.237-.525,1.7,1.7,0,0,1,1.249.525,1.732,1.732,0,0,1,.523,1.27,1.767,1.767,0,0,1-.523,1.3,1.706,1.706,0,0,1-1.249.524,1.665,1.665,0,0,1-1.237-.524,1.79,1.79,0,0,1-.51-1.3" transform="translate(-175.72 -124.611)" fill="#14225d"/>
    <path id="Path_23294" data-name="Path 23294" d="M219.295,132.423q0-1.27,1.155-1.27H222.3v5.8a4.257,4.257,0,0,1-1.25,3.384,5.611,5.611,0,0,1-3.775,1.09h-1.855v-2.983h1.747a2.38,2.38,0,0,0,1.546-.469,1.644,1.644,0,0,0,.578-1.354Zm-3.816,12.426a1.759,1.759,0,0,1,.51-1.27,1.691,1.691,0,0,1,1.264-.524,1.662,1.662,0,0,1,1.236.524,1.837,1.837,0,0,1,0,2.541,1.666,1.666,0,0,1-1.236.524,1.7,1.7,0,0,1-1.264-.524,1.758,1.758,0,0,1-.51-1.27m4.058,0a1.731,1.731,0,0,1,.525-1.27,1.7,1.7,0,0,1,1.249-.524,1.66,1.66,0,0,1,1.236.524,1.837,1.837,0,0,1,0,2.541,1.664,1.664,0,0,1-1.236.524,1.706,1.706,0,0,1-1.249-.524,1.729,1.729,0,0,1-.525-1.27" transform="translate(-176.405 -124.635)" fill="#14225d"/>
    <path id="Path_23295" data-name="Path 23295" d="M228.387,132.423q0-1.27,1.182-1.27H231.4v12.536a4.222,4.222,0,0,1-.941,3.038,3.4,3.4,0,0,1-2.553.966,6.469,6.469,0,0,1-2.58-.552,1.061,1.061,0,0,1-.483-1.381l.4-1.629a6.1,6.1,0,0,0,1.237.566,3.166,3.166,0,0,0,.887.152.911.911,0,0,0,.792-.317,1.751,1.751,0,0,0,.229-1.009Z" transform="translate(-176.79 -124.635)" fill="#14225d"/>
    <path id="Path_23296" data-name="Path 23296" d="M238.8,141.145v-1.851q0-1.13,1.075-1.131h3.681v-7.9q0-1.243,1.156-1.244h1.854v9.141h2.311a1.248,1.248,0,0,0,.994-.345,1.372,1.372,0,0,0,.3-.925V125.625q0-1.27,1.155-1.27h1.854v13.338q0,.47,2.042.47h.994v2.982h-.994a4.257,4.257,0,0,1-1.424-.3,5.458,5.458,0,0,1-1.479-.8,4.792,4.792,0,0,1-1.2.759,3.93,3.93,0,0,1-1.68.345Z" transform="translate(-177.368 -124.355)" fill="#14225d"/>
    <path id="Path_23297" data-name="Path 23297" d="M259.822,132.423q0-1.27,1.156-1.27h1.854v5.8a4.256,4.256,0,0,1-1.25,3.383,5.605,5.605,0,0,1-3.775,1.091h-1.853v-2.983H257.7a2.381,2.381,0,0,0,1.546-.47,1.642,1.642,0,0,0,.576-1.353Zm-1.208,12.4a1.75,1.75,0,0,1,.51-1.27,1.658,1.658,0,0,1,1.235-.524,1.708,1.708,0,0,1,1.251.524,1.735,1.735,0,0,1,.522,1.27,1.77,1.77,0,0,1-.522,1.3,1.712,1.712,0,0,1-1.251.524,1.662,1.662,0,0,1-1.235-.524,1.786,1.786,0,0,1-.51-1.3" transform="translate(-178.075 -124.635)" fill="#14225d"/>
    <path id="Path_23298" data-name="Path 23298" d="M279.772,142a9.059,9.059,0,0,1-1.075-.069,11.146,11.146,0,0,1-1.115-.194,7.5,7.5,0,0,1-1.021-.3,6.549,6.549,0,0,1-.82-.373,4.2,4.2,0,0,0-.726.248,3.073,3.073,0,0,0-.672.4,2.086,2.086,0,0,0-.524.663,2.169,2.169,0,0,0-.228,1.036,12.13,12.13,0,0,0,.067,1.256q.066.649.134,1.146c.044.332.094.639.148.925s.1.539.134.759a1.273,1.273,0,0,1-.081.787,1.057,1.057,0,0,1-.7.511c-.269.073-.56.138-.873.193s-.631.1-.953.138c-.037-.092-.1-.327-.189-.7s-.183-.828-.282-1.353-.2-1.124-.3-1.795a13.224,13.224,0,0,1-.148-1.919,5.775,5.775,0,0,1,.336-2.084,4.892,4.892,0,0,1,.793-1.408,4.356,4.356,0,0,1,1.008-.884,5.386,5.386,0,0,1,1.008-.51,4.555,4.555,0,0,1-.363-1.036,6.888,6.888,0,0,1-.147-1.56,6.1,6.1,0,0,1,.4-2.264,4.864,4.864,0,0,1,1.169-1.754,5.439,5.439,0,0,1,1.854-1.146,6.957,6.957,0,0,1,2.486-.414,8.463,8.463,0,0,1,1.424.124q.726.125,1.451.3t1.505.4v6.821a2.687,2.687,0,0,0,.672.3,4.344,4.344,0,0,0,1.344.165h.993v2.982H285.5a5.03,5.03,0,0,1-1.237-.179,4.233,4.233,0,0,1-1.343-.621,2.925,2.925,0,0,1-1.143,1.022,4.359,4.359,0,0,1-2,.386m.753-8.588a2.433,2.433,0,0,0-.632-.194,4.812,4.812,0,0,0-.765-.055,2.957,2.957,0,0,0-2.218.718,3.058,3.058,0,0,0-.685,2.181,2.727,2.727,0,0,0,.941,2.237,3.637,3.637,0,0,0,2.391.773,1.129,1.129,0,0,0,.686-.207.816.816,0,0,0,.282-.7Z" transform="translate(-178.676 -124.599)" fill="#14225d"/>
    <path id="Path_23299" data-name="Path 23299" d="M289.148,132.423q0-1.27,1.183-1.27h1.828v6.821c0,.2.165.331.5.386a10.312,10.312,0,0,0,1.545.082h1v2.983h-1a4.8,4.8,0,0,1-1.4-.263,4.7,4.7,0,0,1-1.5-.787,4.4,4.4,0,0,1-1.17.732,4.033,4.033,0,0,1-1.652.317h-2.339v-2.983h1.693a1.266,1.266,0,0,0,1.008-.359,1.351,1.351,0,0,0,.309-.911Zm-2.364,12.426a1.756,1.756,0,0,1,.51-1.27,1.692,1.692,0,0,1,1.264-.524,1.659,1.659,0,0,1,1.236.524,1.837,1.837,0,0,1,0,2.541,1.663,1.663,0,0,1-1.236.524,1.7,1.7,0,0,1-1.264-.524,1.754,1.754,0,0,1-.51-1.27m4.058,0a1.733,1.733,0,0,1,.524-1.27,1.706,1.706,0,0,1,1.25-.524,1.661,1.661,0,0,1,1.236.524,1.835,1.835,0,0,1,0,2.541,1.664,1.664,0,0,1-1.236.524,1.71,1.71,0,0,1-1.25-.524,1.732,1.732,0,0,1-.524-1.27" transform="translate(-179.318 -124.635)" fill="#14225d"/>
    <path id="Path_23300" data-name="Path 23300" d="M310.592,141.4a3.2,3.2,0,0,1-1.223-.275,8.807,8.807,0,0,1-1.276-.663,1.518,1.518,0,0,1-.833.7,3.705,3.705,0,0,1-1.37.234H294.6v-2.982h10.964V136.9q0-.8-.054-1.436a2.441,2.441,0,0,0-.336-1.09,1.741,1.741,0,0,0-.887-.69,4.8,4.8,0,0,0-1.68-.235,14.447,14.447,0,0,0-2.137.151q-1.007.152-1.545.29a.994.994,0,0,1-1.343-.745l-.4-1.739q.86-.222,1.707-.386t1.828-.3a14.34,14.34,0,0,1,2-.138,9.855,9.855,0,0,1,2.688.317,3.834,3.834,0,0,1,2.808,2.83,9.931,9.931,0,0,1,.309,2.651v1.546c0,.185.188.314.565.387a8.224,8.224,0,0,0,1.5.11h.968V141.4Zm-9.539,3.369a1.754,1.754,0,0,1,.51-1.27,1.66,1.66,0,0,1,1.236-.525,1.707,1.707,0,0,1,1.25.525,1.732,1.732,0,0,1,.523,1.27,1.767,1.767,0,0,1-.523,1.3,1.71,1.71,0,0,1-1.25.524,1.663,1.663,0,0,1-1.236-.524,1.79,1.79,0,0,1-.51-1.3" transform="translate(-179.667 -124.611)" fill="#14225d"/>
    <path id="Path_23301" data-name="Path 23301" d="M315.121,132.423q0-1.27,1.155-1.27h1.855v5.8a4.26,4.26,0,0,1-1.25,3.384,5.614,5.614,0,0,1-3.775,1.09h-1.855v-2.983H313a2.38,2.38,0,0,0,1.546-.469,1.643,1.643,0,0,0,.577-1.354Zm-3.815,12.426a1.756,1.756,0,0,1,.51-1.27,1.69,1.69,0,0,1,1.263-.524,1.659,1.659,0,0,1,1.236.524,1.837,1.837,0,0,1,0,2.541,1.663,1.663,0,0,1-1.236.524,1.693,1.693,0,0,1-1.263-.524,1.754,1.754,0,0,1-.51-1.27m4.058,0a1.734,1.734,0,0,1,.523-1.27,1.7,1.7,0,0,1,1.25-.524,1.662,1.662,0,0,1,1.236.524,1.837,1.837,0,0,1,0,2.541,1.666,1.666,0,0,1-1.236.524,1.708,1.708,0,0,1-1.25-.524,1.732,1.732,0,0,1-.523-1.27" transform="translate(-180.353 -124.635)" fill="#14225d"/>
    <path id="Path_23302" data-name="Path 23302" d="M324.213,132.423q0-1.27,1.182-1.27h1.828v12.536a4.218,4.218,0,0,1-.94,3.038,3.4,3.4,0,0,1-2.553.966,6.462,6.462,0,0,1-2.579-.552,1.058,1.058,0,0,1-.483-1.381l.4-1.629a6.1,6.1,0,0,0,1.236.566,3.162,3.162,0,0,0,.887.152.914.914,0,0,0,.793-.317,1.76,1.76,0,0,0,.228-1.009Z" transform="translate(-180.738 -124.635)" fill="#14225d"/>
  </g>
</svg>
